<svg width="32" height="32" fill="none" xmlns="http://www.w3.org/2000/svg"><path clip-rule="evenodd" d="M16 31C7.715 31 1 24.285 1 16 1 7.716 7.715 1 16 1c8.284 0 15 6.716 15 15 0 8.284-6.716 15-15 15z" stroke="#D8D8D8"/><path fill-rule="evenodd" clip-rule="evenodd" d="M8.914 21.059a8.228 8.228 0 0 0 4.457 1.306c5.398 0 8.449-4.559 8.265-8.65a5.923 5.923 0 0 0 1.451-1.505 5.838 5.838 0 0 1-1.67.458c.6-.36 1.06-.929 1.277-1.609a5.844 5.844 0 0 1-1.845.707 2.91 2.91 0 0 0-4.956 2.652 8.25 8.25 0 0 1-5.993-3.04 2.913 2.913 0 0 0 .9 3.884 2.905 2.905 0 0 1-1.318-.364c-.03 1.347.935 2.607 2.333 2.888-.41.112-.858.136-1.312.05a2.909 2.909 0 0 0 2.715 2.019 5.846 5.846 0 0 1-4.304 1.204z" fill="#1D1D1D"/></svg>